<?xml version="1.0" encoding="UTF-8" standalone="no"?>
<!-- Created with Inkscape (http://www.inkscape.org/) -->

<svg
   version="1.1"
   id="svg1"
   width="2048"
   height="2048"
   viewBox="0 0 2048 2048"
   xmlns="http://www.w3.org/2000/svg"
   xmlns:svg="http://www.w3.org/2000/svg">
  <defs
     id="defs1" />
  <path
     d="m 976,2046.9889 c -86.51166,-5.168 -156.67662,-16.7435 -233.43499,-38.5111 -45.9867,-13.0412 -118.24955,-39.8335 -149.56501,-55.453 -4.125,-2.0575 -10.425,-5.0315 -14,-6.609 -8.54541,-3.7707 -39.24162,-19.7849 -55,-28.6935 -29.85714,-16.8788 -64.42905,-38.8163 -89.36796,-56.708 -6.52737,-4.6829 -13.72737,-9.8174 -16,-11.4102 -7.87792,-5.5211 -23.17962,-17.1454 -33.63015,-25.548 -97.90488,-78.7186 -178.40088,-170.9933 -241.3979,-276.7207 -22.34041,-37.4937 -44.707922,-80.9484 -58.594769,-113.8354 -2.090183,-4.95 -5.020444,-11.7 -6.51169,-15 -2.651978,-5.8686 -9.634879,-24.1061 -17.574806,-45.9008 C 36.874325,1306.5876 17.50772,1227.9192 9.0773688,1162 -1.03234,1082.9495 -2.6757243,1016.019 3.5787963,938.05826 8.8452919,872.41299 16.779719,827.86949 36.988096,750.5 47.022137,712.08383 64.603152,661.65967 83.185884,618 98.499332,582.02143 129.79541,522.0039 151.75641,486.5 c 29.11874,-47.07565 63.86762,-93.83095 103.92802,-139.83714 18.25215,-20.96115 67.1987,-70.36497 84.90272,-85.6959 C 363.92209,240.75989 371.54834,234.24701 377,229.87004 443.29161,176.64666 512.73995,132.88179 587.5,97.217433 626.65069,78.540555 682.94687,56.722371 720,45.865649 744.79056,38.60191 778.54019,29.275913 784.5,28.042435 786.7,27.58711 797.725,25.180545 809,22.694511 876.21232,7.874816 934.89021,1.4330047 1013,0.29886005 c 56.7238,-0.82362324 111.7897,2.90145475 166.5,11.26333195 30.5658,4.671662 84.9096,15.801566 100,20.480571 1.65,0.511606 9.75,2.782559 18,5.046563 28.5002,7.821152 52.5329,15.366431 71.5,22.448082 57.8964,21.616446 75.8263,29.315019 117.5,50.451262 46.1296,23.39618 97.4061,54.64776 135.2678,82.44194 24.0636,17.66497 57.9414,44.06114 69.2712,53.97324 54.5781,47.74854 101.8573,97.39935 141.4985,148.59615 44.0627,56.90709 74.5368,105.27048 107.4332,170.5 39.1623,77.65371 65.7499,153.43334 85.433,243.5 8.5038,38.91207 15.0051,81.8257 18.5583,122.5 0.5766,6.6 1.5298,17.4 2.1184,24 1.7334,19.43967 2.3086,84.1657 1.0087,113.5 -1.8221,41.1158 -5.9711,82.9018 -11.6669,117.5 -3.066,18.6239 -6.7678,38.859 -8.4152,46 -0.5075,2.2 -1.872,8.275 -3.0321,13.5 -11.1544,50.2355 -26.6682,101.4389 -44.9933,148.5 -1.7133,4.4 -3.9269,10.25 -4.9192,13 -2.2173,6.1452 -6.3028,15.9254 -10.1591,24.3198 -1.5968,3.4758 -2.9033,6.5258 -2.9033,6.7776 0,0.2519 -2.3041,5.508 -5.1202,11.6803 -28.0786,61.5422 -69.3566,130.9665 -109.8244,184.7107 -54.1503,71.9155 -126.2727,145.3544 -194.5554,198.1069 -37.6953,29.1218 -85.7257,60.995 -129,85.6052 -17.8824,10.1697 -72.4457,37.1847 -84.482,41.8282 -4.6849,1.8073 -11.218,4.5077 -14.518,6.0007 -3.3,1.493 -12.075,5.0784 -19.5,7.9675 -7.425,2.8891 -17.1,6.7234 -21.5,8.5206 -25.4228,10.3842 -82.7902,28.2194 -119,36.9964 -51.4132,12.4622 -106.8071,20.9004 -167.5,25.5154 -24.0888,1.8317 -98.59995,2.738 -120,1.4596 z m 63.1035,-277.3673 c 41.3568,-19.6909 108.627,-56.06 151.5007,-81.9076 76.2021,-45.9407 138.8252,-90.0601 198.8958,-140.1268 30.9678,-25.8105 55.7818,-50.018 75.431,-73.5872 5.7315,-6.875 10.7079,-12.725 11.0585,-13 0.3506,-0.275 4.2089,-5.279 8.574,-11.1199 30.1995,-40.4104 51.7647,-76.1905 73.308,-121.6301 2.9417,-6.2046 5.9438,-11.25 6.6939,-11.25 0.748,0 3.2389,2.8125 5.5352,6.25 5.6369,8.4381 9.8514,12.75 12.4619,12.75 1.8486,0 2.9207,-1.8893 7.235,-12.75 17.4291,-43.8751 30.8059,-100.8381 36.6927,-156.25 11.5696,-108.9018 -10.8365,-236.28478 -61.6514,-350.5 -6.1997,-13.93491 -5.8162,-8.31127 -4.3979,-64.5 1.4067,-55.72491 -2.1666,-114.43534 -11.0162,-181 -1.9377,-14.575 -3.711,-27.175 -3.9406,-28 -0.2296,-0.825 -1.3099,-7.35 -2.4006,-14.5 -2.8804,-18.88226 -7.3222,-40.48675 -13.6315,-66.30239 -6.7193,-27.49299 -7.5655,-30.46494 -17.1385,-60.19761 -10.235,-31.789 -17.4324,-50.19306 -27.7664,-71 -18.6639,-37.5788 -33.8959,-54.34842 -52.7971,-58.1267 -9.424,-1.88383 -22.2131,1.68085 -33.9278,9.45664 -6.7302,4.46724 -30.641,27.21241 -39.2388,37.32597 -3.3459,3.93574 -10.1334,11.81898 -15.0834,17.5183 -4.95,5.69932 -10.4385,12.15416 -12.1966,14.34409 -21.9392,27.32778 -26.3068,32.98173 -44.7313,57.9048 -15.4811,20.94159 -44.4832,63.23903 -49.4209,72.0769 -3.4792,6.22728 -2.4948,6.21903 -19.8308,0.1662 -53.166,-18.56272 -99.6105,-23.65861 -159.3204,-17.4806 -25.391,2.62714 -41.3246,2.68296 -64.5,0.22597 -25.49102,-2.70248 -76.10561,-2.73544 -92,-0.0599 -29.29012,4.93046 -44.72963,8.73089 -69.38606,17.07934 -17.22588,5.83253 -16.75713,5.84209 -21.12358,-0.431 -1.33991,-1.925 -2.80576,-3.95 -3.25743,-4.5 -0.45168,-0.55 -6.27652,-9.1 -12.94409,-19 -18.34352,-27.23644 -20.86342,-30.88902 -31.47619,-45.62479 -10.68254,-14.83262 -20.17192,-27.32264 -31.51632,-41.48207 -4.01298,-5.00878 -11.18466,-14.00878 -15.93706,-20 -22.22945,-28.02408 -51.35141,-58.06746 -66.16796,-68.26151 -20.66808,-14.22002 -40.18001,-12.75077 -57.22063,4.30872 C 566.32665,312.61333 537.00993,384.1886 516.46676,472 c -8.32022,35.5646 -12.22669,58.31451 -19.40366,113 -7.72104,58.83101 -11.1317,127.97784 -9.05119,183.50129 1.35594,36.18624 1.44095,35.43426 -5.70902,50.49871 -10.94013,23.05003 -29.97986,77.0815 -38.86204,110.28376 -11.31065,42.28007 -17.27534,75.23224 -22.12244,122.21624 -2.20942,21.4164 -2.50642,83.6125 -0.50141,105 1.94205,20.7158 5.85406,49.2458 8.77564,64 6.86342,34.6608 22.89292,90.5263 31.20365,108.75 4.41215,9.6749 7.2022,9.0053 15.91054,-3.8183 4.05281,-5.968 6.96639,-9.0918 7.74953,-8.3087 0.22441,0.2244 6.42237,12.3261 13.77325,26.8925 39.20681,77.6921 85.85527,139.2393 143.35017,189.1338 21.57959,18.7269 54.05269,44.8942 72.31567,58.2729 1.55997,1.1428 7.28417,5.4265 12.72043,9.5195 14.29421,10.7619 18.75799,13.9894 29.38412,21.2461 5.225,3.5682 13.775,9.4054 19,12.9716 5.225,3.5662 20.3,13.3773 33.5,21.8024 13.2,8.4251 25.24199,16.1721 26.75999,17.2156 2.87153,1.9739 28.7683,17.6979 34.54946,20.9777 9.98373,5.664 17.74031,10.1122 26.69055,15.3062 5.5,3.1917 12.7,7.2527 16,9.0244 3.3,1.7716 10.95,5.917 17,9.2119 36.00446,19.6085 91.549,47.2243 95.1035,47.2839 0.607,0.01 7.132,-2.8518 14.5,-6.3599 z m -26.5688,-59.261 c -13.13923,-6.7101 -32.79361,-20.4118 -47.026,-32.7834 -11.23255,-9.7639 -37.65288,-36.753 -47.55363,-48.5772 -2.99345,-3.575 -5.67888,-6.725 -5.96765,-7 -0.28876,-0.275 -3.6581,-4.325 -7.48742,-9 -3.82932,-4.675 -7.19586,-8.725 -7.4812,-9 -0.28534,-0.275 -2.30354,-2.75 -4.48489,-5.5 -2.18135,-2.75 -4.20635,-5.225 -4.5,-5.5 -0.29365,-0.275 -2.77299,-3.2 -5.50965,-6.5 -22.18387,-26.7504 -41.88037,-44.7452 -67.16251,-61.3598 -64.14941,-42.157 -93.37401,-63.0087 -135.39548,-96.6042 -47.10893,-37.6629 -87.94168,-77.6245 -115.67864,-113.2107 -24.36927,-31.2656 -49.97233,-73.7868 -60.70925,-100.8253 -11.3949,-28.6954 -13.07188,-33.6983 -18.93885,-56.5 -3.40459,-13.2317 -7.58537,-36.1261 -9.67842,-53 -1.71946,-13.862 -2.37932,-64.1225 -1.0533,-80.2269 6.42103,-77.98212 25.25072,-149.58025 56.20957,-213.73158 8.29907,-17.19693 20.77379,-39.87433 30.82811,-56.04152 15.38023,-24.73113 17.33249,-28.28657 17.79757,-32.41281 0.55311,-4.90718 -0.46826,-11.67833 -4.76467,-31.58719 -10.12289,-46.90784 -14.6293,-83.91203 -15.64887,-128.5 -0.65602,-28.68906 -0.21123,-36.0189 4.24776,-70 2.86581,-21.83979 4.4387,-30.85365 8.55035,-49 10.06165,-44.40604 26.402,-86.97485 38.58915,-100.52989 8.03491,-8.93675 13.43078,-10.02498 24.28322,-4.8974 24.45076,11.55256 59.44596,50.78139 97.17168,108.92729 17.01329,26.22223 24.75756,39.07995 48.38179,80.32769 7.47991,13.05985 8.06713,13.79819 10.5752,13.29658 1.46053,-0.29211 10.01658,-3.41313 19.01342,-6.93559 19.60484,-7.67573 24.70531,-9.12749 29.14282,-8.29501 4.48549,0.84148 8.31905,5.06933 9.73516,10.73646 2.12263,8.4945 -3.28184,22.38183 -10.7724,27.68074 -1.51122,1.06905 -8.59767,4.96965 -15.74767,8.668 -7.15,3.69834 -13.45,7.06897 -14,7.49027 -0.55,0.42131 -3.7,2.24699 -7,4.05708 -19.62314,10.76353 -56.19509,36.8076 -75,53.40993 -4.4,3.88464 -9.8,8.60548 -12,10.49075 -8.26201,7.08009 -45.37645,45.0182 -54.85868,56.07614 -20.75176,24.20019 -45.97936,58.773 -59.10307,80.99696 -13.31745,22.55206 -29.6676,53.76868 -34.4372,65.74944 -1.04017,2.61281 -3.69584,9.07206 -5.90149,14.35389 -4.76969,11.42185 -15.96543,45.3073 -20.19849,61.13345 -1.65693,6.19477 -4.60493,18.6795 -6.5511,27.74384 -15.43186,71.87398 -16.349,128.74998 -2.95787,183.43058 13.49662,55.1114 36.93121,100.1706 75.44741,145.0674 21.13348,24.6345 45.99722,49.0674 68.57507,67.3868 1.10802,0.899 6.28302,5.2703 11.5,9.7139 10.12615,8.625 26.98542,21.7942 26.98542,21.079 0,-0.2372 -1.9655,-4.6448 -4.36779,-9.7948 -8.08285,-17.3277 -11.46131,-25.299 -16.47158,-38.8635 -4.27646,-11.5779 -10.85237,-31.9349 -12.43664,-38.5 -0.26544,-1.1 -2.15865,-8.3 -4.20712,-16 -9.06091,-34.0591 -12.95523,-65.2091 -12.25177,-98 0.39282,-18.3107 0.81139,-23.1104 2.49604,-28.6213 2.48133,-8.1171 4.74546,-11.7168 7.86157,-12.4989 6.61136,-1.6593 11.62408,2.6865 23.01274,19.9512 16.54702,25.0844 26.66208,38.1963 37.73815,48.919 4.49216,4.3488 5.43446,4.5843 6.00317,1.5 1.94631,-10.5556 11.9209,-48.3838 16.15049,-61.25 5.2611,-16.0041 14.03047,-38.9761 19.37198,-50.7465 1.56086,-3.4394 3.97902,-8.8014 5.37371,-11.9155 l 2.53579,-5.6619 -8.15437,-2.5473 c -22.66242,-7.0792 -47.32022,-23.4185 -59.80428,-39.6288 -10.76694,-13.9807 -19.93876,-31.4281 -25.34609,-48.21563 -2.28481,-7.09337 -4.5704,-12.82669 -5.0791,-12.74071 -0.50869,0.086 -0.8124,0.56134 -0.6749,1.05634 0.1375,0.495 -0.2021,0.7875 -0.75467,0.65 -1.32421,-0.32952 -13.42594,10.41611 -18.86385,16.75 -13.82296,16.1005 -29.89974,45.8455 -40.63728,75.1865 -7.25284,19.8188 -16.52679,55.0903 -20.06515,76.3135 -0.96281,5.775 -2.07608,10.8754 -2.47393,11.3341 -1.26168,1.4549 -11.63145,-4.2334 -15.47678,-8.4898 -8.20607,-9.0831 -11.4701,-22.9167 -11.47515,-48.6337 -0.0109,-55.7682 16.03855,-106.12064 48.35669,-151.7106 6.89619,-9.72819 18.74074,-23.61722 27.64012,-32.41105 14.78203,-14.60672 43.23016,-35.99525 62,-46.61428 C 720.68571,864.56074 749.47122,850 750.5,850 c 2.32323,0 32.47362,-16.28275 42.13184,-22.75335 10.63459,-7.12472 33.35075,-26.21101 33.37894,-28.04524 0.006,-0.38577 1.71487,-2.50141 3.79764,-4.70141 2.08277,-2.2 6.66493,-7.80023 10.18256,-12.44495 3.51764,-4.64472 9.16991,-11.37316 12.56061,-14.95209 l 6.1649,-6.50714 6.09076,0.11193 c 4.64542,0.0854 7.33901,0.7859 11.35091,2.95208 11.01878,5.9495 21.09377,19.30639 25.08862,33.26119 1.57735,5.51001 1.83234,9.25994 1.56932,23.07898 -0.73811,38.77966 -0.44805,46.08698 2.0323,51.19826 4.91438,10.12713 15.65631,13.46002 26.63787,8.26491 11.13074,-5.26568 20.60593,-17.55546 29.57576,-38.36115 5.83931,-13.54441 7.43977,-22.66344 7.38922,-42.10202 -0.0724,-27.84477 -4.47345,-48.20941 -14.9224,-69.0494 -5.60125,-11.17146 -5.51164,-11.03944 -13.57714,-20.00427 -7.29072,-8.10367 -19.77592,-16.87226 -29.87613,-20.98257 -12.77065,-5.19705 -20.80089,-6.46792 -40.57558,-6.42152 -18.10658,0.0425 -27.14239,0.95102 -46.5,4.67547 -14.32114,2.75542 -24.11113,2.89277 -26.89315,0.3773 -5.15803,-4.66382 -0.76307,-14.16041 12.77753,-27.60959 29.77611,-29.5751 88.8431,-64.94509 130.84189,-78.34964 22.32448,-7.12519 32.12147,-14.04618 51.35132,-36.2766 12.19801,-14.1014 21.82351,-19.04142 35.30141,-18.11747 13.1847,0.90385 18.0936,4.2541 37.3661,25.50163 8.8382,9.74391 18.6879,17.73181 26.7611,21.70278 2.7533,1.35431 10.4033,4.32074 17,6.59207 16.467,5.66989 32.0908,12.15331 43.8791,18.20857 39.309,20.19165 87.8846,56.03188 98.6232,72.76652 5.5398,8.63302 5.8436,14.93173 0.7988,16.56052 -2.5119,0.811 -16.4518,0.76392 -17.7851,-0.0601 -0.4525,-0.27966 -7.9551,-1.64938 -16.6725,-3.04381 -38.3837,-6.13988 -66.8669,-3.59566 -87.3497,7.8024 -11.8383,6.58762 -25.9461,20.78985 -31.692,31.9041 -12.4926,24.1643 -17.557,45.64382 -17.6419,74.82358 -0.055,18.79946 0.8496,23.7241 7.3549,40.05275 7.3913,18.55239 16.3245,30.77117 27.8333,38.06978 9.7336,6.1729 16.7504,5.93968 24.2159,-0.80488 6.0809,-5.49378 7.4346,-11.29386 6.9591,-29.81765 -0.9567,-37.27315 -0.6533,-46.58008 1.7257,-52.93216 4.5515,-12.15299 14.4061,-25.23871 22.6281,-30.04728 4.9649,-2.90371 12.9521,-4.82548 16.6656,-4.00987 4.4834,0.98473 14.3621,11.37235 28.3076,29.76601 10.2587,13.53092 29.9554,30.2732 49.7929,42.32413 5.1429,3.12427 21.5008,11.61165 36.3508,18.86085 51.126,24.95776 82.2383,47.32065 109.9617,79.03832 15.1698,17.35538 26.9946,35.36719 37.5373,57.17761 12.1997,25.23842 18.6415,46.93492 23.1056,77.82242 2.8063,19.4164 3.063,50.9591 0.5087,62.5 -3.1583,14.2697 -9.7435,24.089 -18.7547,27.9655 -4.999,2.1505 -5.2862,2.1703 -6.5435,0.4507 -0.7233,-0.9891 -1.3151,-2.8303 -1.3151,-4.0914 0,-5.5819 -9.5733,-46.5109 -15.1625,-64.8248 -7.0507,-23.1026 -22.8719,-58.6216 -33.1129,-74.339 -8.2938,-12.729 -22.8964,-29.09594 -32.1423,-36.02585 l -2.9177,-2.18685 -3.3831,11.65942 c -1.8608,6.41268 -4.427,13.73688 -5.7028,16.27588 -1.2758,2.539 -2.6612,5.7167 -3.0785,7.0616 -0.4174,1.3448 -2.1169,4.7198 -3.7768,7.5 -18.2027,30.488 -35.3477,44.6741 -70.2234,58.1043 -5.5,2.1179 -10.1293,3.9275 -10.2872,4.0212 -0.158,0.094 1.5783,4.3912 3.8584,9.5499 18.4177,41.6694 29.8036,77.0418 38.5071,119.6294 0.2529,1.2375 0.9627,2.25 1.5773,2.25 0.6146,0 5.3455,-4.3875 10.5131,-9.75 8.9253,-9.262 18.854,-22.6825 34.3047,-46.3691 9.4629,-14.5071 14.5409,-18.4581 20.917,-16.2746 12.5742,4.3061 14.2023,64.6114 3.1365,116.1799 -9.3726,43.6782 -21.3946,80.4067 -37.6406,114.9958 -2.9144,6.2051 -4.7561,10.9499 -4.0926,10.544 10.6526,-6.5174 76.4923,-64.1999 86.2063,-75.5256 1.65,-1.9238 6.6571,-7.5034 11.1269,-12.3991 50.8934,-55.7429 80.5368,-117.2903 89.7775,-186.4013 7.3561,-55.017 3.5342,-102.099 -14.2466,-175.50003 -12.7895,-52.79657 -36.4723,-105.8082 -73.1517,-163.74298 -6.0021,-9.48039 -22.798,-32.44875 -32.3634,-44.25702 -11.0083,-13.58949 -18.6068,-22.59603 -24.0445,-28.5 -36.2912,-39.40342 -72.6909,-71.31435 -106.5982,-93.45283 -5.775,-3.77056 -12.3,-8.08055 -14.5,-9.57775 -2.2,-1.4972 -8.05,-4.86378 -13,-7.48129 -4.95,-2.6175 -10.125,-5.54261 -11.5,-6.50023 -1.375,-0.95762 -7.0145,-4.00156 -12.5321,-6.76431 -15.3182,-7.66991 -22.0815,-15.87061 -23.1923,-28.12123 -0.7302,-8.05211 1.5508,-12.69568 7.5369,-15.34362 5.6313,-2.491 8.9625,-2.0034 23.0174,3.36916 14.6937,5.61678 29.2249,10.87457 30.0137,10.85984 0.361,-0.007 2.6505,-3.49425 5.0877,-7.75 55.4242,-96.779 97.563,-155.32174 132.5687,-184.17531 9.7365,-8.02539 21.3924,-14.06243 27.1508,-14.06243 7.7617,0 12.0525,3.44978 19.4018,15.59896 9.5589,15.80211 23.0136,51.06787 29.9116,78.40104 5.9619,23.62388 11.3913,56.32686 14.61,88 2.0231,19.90806 1.4789,67.97713 -1.0245,90.5 -3.9098,35.17486 -7.8515,59.84008 -13.5839,85 -1.7741,7.78655 -3.4181,18.26185 -3.7044,23.60271 -0.6122,11.42438 -0.088,12.74792 12.4839,31.50346 16.7907,25.0498 37.6803,65.06394 50.5841,96.89383 6.3779,15.73235 16.8373,47.27847 22.6476,68.30627 6.92,25.04419 11.31,49.0462 16.0032,87.49606 9.4538,77.4528 -0.1572,150.7972 -28.4614,217.1977 -9.1161,21.3862 -28.0852,54.9182 -41.2961,73 -20.2638,27.7352 -23.0576,31.2988 -37.6065,47.9675 -17.8109,20.4062 -68.6561,68.1612 -94.1162,88.3961 -3.85,3.0599 -7.503,6.0298 -8.1177,6.5999 -1.4528,1.3473 -39.0634,29.9792 -45.3667,34.5365 -19.8381,14.3428 -44.1027,30.7695 -81.8212,55.3914 -33.4213,21.8168 -53.0892,41.1448 -95.491,93.8406 -2.0882,2.5951 -4.3382,5.303 -5,6.0175 -2.1096,2.2775 -16.0895,18.1064 -19.2034,21.7433 -5.0032,5.8435 -24.5594,25.1623 -31.9128,31.5254 -21.5437,18.6423 -52.3684,38.5324 -59.5872,38.4495 -1.375,-0.016 -6.5344,-2.089 -11.4653,-4.6071 z m 47.955,-209.8194 c 12.4286,-2.0098 30.6253,-6.5375 40.5103,-10.0798 15.8075,-5.6646 39.6585,-19.5231 41.3969,-24.0534 0.8831,-2.3013 -0.1668,-3.6414 -7.3969,-9.4421 -17.7419,-14.2343 -36.9557,-25.0749 -87,-49.0864 -15.7027,-7.5343 -20.3763,-9.3562 -24,-9.3559 -4.7412,5e-4 -3.8568,-0.4016 -58.60481,26.6408 -12.15765,6.0052 -27.45765,14.4565 -34,18.7807 -12.98919,8.5852 -25.15746,18.2718 -26.127,20.7984 -0.82068,2.1387 3.79832,5.9704 15.68746,13.0136 20.25599,11.9999 44.93808,19.8184 75.04435,23.7719 13.8265,1.8157 50.6403,1.2518 64.4897,-0.9878 z m -202.28153,-60.1609 c 10.6887,-3.3689 15.06622,-5.6274 29.46018,-15.199 35.51148,-23.6142 44.9343,-29.0669 83.24135,-48.1692 16.31427,-8.1353 30.299,-15.5586 31.0772,-16.4963 1.7396,-2.096 3.0321,-28.6274 2.3392,-48.0158 -0.3593,-10.0532 -0.8097,-13.2668 -1.9869,-14.1772 -0.8373,-0.6474 -6.99362,-3.3079 -13.68076,-5.9121 -14.60159,-5.6864 -23.89424,-10.2039 -32.78811,-15.9393 -7.99547,-5.1562 -10.18684,-6.933 -19.69714,-15.9714 -8.09749,-7.6957 -12.49709,-14.1918 -11.9974,-17.7145 0.44561,-3.1413 4.08414,-3.3547 21.16515,-1.2411 15.87015,1.9637 21.5051,1.5808 28.43855,-1.9327 11.35331,-5.7531 16.23514,-13.305 16.19855,-25.058 -0.0374,-12.0201 -4.04688,-17.8971 -14.44618,-21.1752 -11.9486,-3.7664 -19.05756,0.3593 -25.91898,15.0423 -4.98251,10.6623 -6.32595,11.5818 -16.90993,11.5736 -10.29086,-0.01 -14.42816,-1.4402 -19.80871,-6.8573 -7.02498,-7.0728 -9.19008,-13.7374 -9.30317,-28.6371 -0.0988,-13.0134 0.92326,-17.4732 6.61001,-28.8441 6.57964,-13.1563 15.52875,-21.8438 29.50309,-28.6409 23.07695,-11.2244 49.29477,-16.2458 84.79583,-16.2405 38.0268,0.01 66.1563,5.9336 89.1803,18.7935 12.7745,7.1351 21.6773,17.9758 28.0744,34.1854 2.4268,6.1492 2.6598,7.9421 2.6317,20.2466 -0.035,15.427 -1.8257,21.9836 -7.6377,27.9681 -8.3947,8.6439 -26.7802,11.5444 -33.8921,5.3469 -0.9039,-0.7876 -2.6674,-4.6167 -3.919,-8.5091 -4.3744,-13.6044 -14.9309,-19.7215 -27.0384,-15.6678 -9.2151,3.0853 -13.8553,10.072 -13.8553,20.8619 0,13.7062 7.3044,23.1706 21.2833,27.577 5.1617,1.6271 6.8426,1.6883 16.9513,0.6172 6.1718,-0.654 14.8845,-1.4758 19.3614,-1.8262 7.7502,-0.6067 8.1729,-0.5332 8.8296,1.5358 1.5756,4.9645 -12.9081,20.9137 -30.0651,33.1071 -9.9188,7.0493 -15.8844,10.1123 -31.9044,16.3814 -18.4295,7.212 -18.3061,7.1316 -19.1019,12.4386 -1.046,6.9754 0.5327,52.2385 1.9218,55.0996 0.8847,1.822 9.6916,6.7078 35.1801,19.5165 41.6863,20.9487 54.1832,28.3582 84.1342,49.8842 6.5859,4.7333 20.1729,11.0799 27.8658,13.0163 19.4659,4.8998 31.7449,1.8065 49.8673,-12.5624 22.2401,-17.6338 30.6321,-40.8659 30.6325,-84.8022 10e-4,-96.4357 -23.6657,-195.1585 -63.1645,-263.4829 -18.2,-31.4822 -34.561,-53.6437 -56.579,-76.6383 -26.3703,-27.5399 -32.9091,-34.95368 -40.4487,-45.8617 -6.9063,-9.99171 -17.5163,-28.56568 -28.2758,-49.5 -10.8879,-21.184 -11.6416,-22.40432 -19.3172,-31.27628 -13.6931,-15.82755 -33.6026,-23.87396 -50.2562,-20.31106 -13.503,2.88888 -29.45017,14.49627 -38.28325,27.86509 -2.44285,3.69724 -9.64954,16.91986 -16.01486,29.3836 -20.98948,41.09881 -28.37185,51.24289 -64.66029,88.84945 -28.11661,29.138 -47.02579,56.1562 -67.52958,96.4892 -20.59463,40.5117 -35.98765,90.6934 -45.39834,148 -8.94525,54.4723 -10.62948,113.8051 -3.97101,139.893 4.74913,18.6072 16.6226,34.8749 34.13401,46.7666 15.13702,10.2794 26.9236,11.9097 44.97309,6.2207 z m 130.23496,-372.0097 c 0.36297,-1.4462 6.97055,-19.3337 14.68347,-39.75 7.713,-20.4163 16.9496,-44.9956 20.5257,-54.6206 3.5762,-9.625 7.5442,-20.2 8.8178,-23.5 l 2.3157,-6 11.7739,-0.28318 c 6.4757,-0.15575 12.1406,0.0835 12.5888,0.53164 0.7002,0.70026 -2.3259,9.28789 -16.6506,47.25154 -7.5117,19.9077 -24.4979,66.134 -24.4979,66.6687 0,0.3443 -0.9603,3.2597 -2.134,6.4786 l -2.134,5.8527 h -12.9744 -12.97442 z m -152.28629,-82.27358 0.32459,-14.40298 -2.49072,-1.03964 c -1.36989,-0.5718 -9.57298,-5.22796 -18.22909,-10.34702 C 807.10552,955.18832 799.77115,951 799.46302,951 c -1.091,0 -17.46238,-10.18315 -17.4217,-10.83646 0.0483,-0.77572 13.93764,-8.94406 36.43132,-21.42532 8.78495,-4.87459 16.4928,-9.29458 17.12855,-9.8222 1.15195,-0.95603 1.77265,-24.41171 0.74522,-28.16136 -0.54579,-1.9919 2.16039,-3.31931 -25.34641,12.43271 -9.075,5.19688 -26.07737,14.77276 -37.78305,21.27973 -11.70568,6.50697 -21.5351,12.23866 -21.84314,12.73709 -0.30805,0.49843 -0.50838,6.39389 -0.44519,13.10102 0.13471,14.29669 -1.50895,12.11874 16.74991,22.19479 6.9766,3.85 25.07761,14.06288 40.22447,22.6953 15.14685,8.63241 27.62738,15.6074 27.73449,15.5 0.10712,-0.1074 0.34083,-6.67664 0.51935,-14.59828 z m 397.15836,3.17705 c 4.6242,-2.88645 9.1022,-5.42783 17.6848,-10.03656 3.575,-1.91971 6.95,-3.82729 7.5,-4.23905 0.55,-0.41177 7.3,-4.24845 15,-8.52596 7.7,-4.27751 16.3625,-9.27813 19.25,-11.11248 l 5.25,-3.33518 v -11.94432 c 0,-13.61747 0.8587,-12.1944 -11.5,-19.05758 -11.885,-6.60013 -15.2461,-8.50651 -31.5,-17.86676 -37.1997,-21.42245 -42.4865,-24.19115 -42.7155,-22.37013 -0.1185,0.94267 -0.3435,7.42411 -0.5,14.40319 l -0.2845,12.68924 9,5.41103 c 4.95,2.97607 17.4252,10.09092 27.7227,15.81077 10.2975,5.71984 18.735,10.71189 18.75,11.09342 0.015,0.38154 -4.5852,3.25729 -10.2227,6.39057 -28.1348,15.63709 -42.4147,23.81511 -44,25.19854 -1.414,1.23392 -1.7483,3.1776 -1.7413,10.12218 0,4.72725 0.2904,10.9398 0.6346,13.80564 l 0.626,5.21067 8.6153,-4.63288 c 4.7385,-2.54806 10.3322,-5.70452 12.4306,-7.01435 z"
     id="path1" />
</svg>
